<svg width="120" height="32" viewBox="0 0 120 32" fill="none" xmlns="http://www.w3.org/2000/svg">
<g clip-path="url(#clip0_14_7)">
<path d="M31.2881 7.10695C30.4887 3.95941 28.0406 1.51132 24.8931 0.711944C18.9977 -0.237315 13.0023 -0.237315 7.10695 0.711944C3.95941 1.51132 1.51132 3.95941 0.711944 7.10695C-0.237315 13.0023 -0.237315 18.9977 0.711944 24.8931C1.51132 28.0406 3.95941 30.4887 7.10695 31.2881C13.0023 32.2373 18.9977 32.2373 24.8931 31.2881C28.0406 30.4887 30.4887 28.0406 31.2881 24.8931C32.2373 18.9977 32.2373 13.0023 31.2881 7.10695Z" fill="#066FD1"/>
<path d="M9.55342 27.9897C9.51274 27.9814 9.42489 27.9632 9.35819 27.9483C9.29149 27.9334 9.16947 27.8936 9.08975 27.8621C9.01003 27.8289 8.88151 27.7593 8.80504 27.7096C8.72858 27.6582 8.62283 27.5753 8.56914 27.5239C8.51546 27.4742 8.43086 27.3781 8.3788 27.3101C8.32836 27.2421 7.81264 26.3603 7.23346 25.3475C6.65428 24.3346 6.15645 23.4511 6.1288 23.3832C6.09951 23.3152 6.05884 23.1909 6.03769 23.1097C6.00352 22.9804 5.99864 22.924 6.00027 22.687C6.0019 22.4499 6.00678 22.3936 6.04257 22.256C6.06535 22.1698 6.11253 22.0355 6.14832 21.9576C6.18411 21.8797 6.68357 20.9962 7.25949 19.9933C7.83378 18.9904 8.3365 18.1285 8.37392 18.0787C8.41133 18.029 8.49756 17.9362 8.56264 17.8715C8.62934 17.8069 8.7237 17.729 8.77251 17.6958C8.82131 17.661 8.91242 17.608 8.97587 17.5765C9.03932 17.5433 9.14506 17.5002 9.21177 17.477C9.27847 17.4555 9.38422 17.4273 9.44767 17.414C9.54203 17.3941 9.95038 17.3908 11.7823 17.3908C13.5979 17.3908 14.0258 17.3958 14.125 17.414C14.1917 17.4256 14.3023 17.4555 14.369 17.4787C14.4357 17.5002 14.5415 17.545 14.6049 17.5781C14.6684 17.6096 14.7627 17.666 14.8164 17.7041C14.8701 17.7406 14.9612 17.8168 15.0182 17.8715C15.0751 17.9262 15.1597 18.0224 15.2069 18.087C15.2541 18.1517 15.7568 19.012 16.3229 20.0016C16.8891 20.9912 17.3837 21.8681 17.4211 21.9493C17.4601 22.0305 17.5057 22.1549 17.5236 22.2228C17.5415 22.2908 17.5643 22.4151 17.5757 22.4963C17.587 22.5842 17.5903 22.7068 17.5838 22.7947C17.5773 22.8759 17.5626 22.992 17.5496 23.0516C17.5382 23.1113 17.5122 23.2075 17.4911 23.2671C17.4715 23.3268 17.4374 23.413 17.4146 23.4578C17.3934 23.5025 16.9037 24.3645 16.3278 25.3723C15.638 26.5791 15.2443 27.2504 15.1743 27.3416C15.1158 27.4162 15.0149 27.5223 14.9515 27.577C14.8864 27.63 14.7774 27.7079 14.7107 27.7494C14.644 27.7892 14.5317 27.8455 14.4634 27.8737C14.3934 27.9019 14.2649 27.9417 14.1787 27.9615L14.0193 27.998C10.5784 28.003 9.59409 27.998 9.55342 27.9897ZM19.9086 21.7902C19.8549 21.7819 19.7557 21.7603 19.689 21.7404C19.6223 21.7222 19.5084 21.6791 19.4368 21.6443C19.3652 21.6112 19.2514 21.5465 19.1847 21.5017C19.118 21.4553 19.0089 21.3625 18.9406 21.2945C18.8723 21.2266 18.7796 21.1139 18.734 21.0459C18.6901 20.9779 18.1988 20.1276 17.644 19.1562C17.0892 18.1848 16.6093 17.3394 16.5767 17.2748C16.5458 17.2101 16.5019 17.0991 16.4791 17.0261C16.4563 16.9532 16.4303 16.8355 16.4206 16.7642C16.4108 16.6946 16.4027 16.5769 16.4027 16.504C16.4027 16.431 16.4108 16.3134 16.4206 16.2421C16.4303 16.1725 16.4563 16.0548 16.4791 15.9818C16.5019 15.9089 16.5458 15.7978 16.5767 15.7332C16.6093 15.6685 17.0892 14.8231 17.644 13.8518C18.1988 12.8804 18.6901 12.03 18.734 11.9621C18.7796 11.8941 18.8723 11.7814 18.9406 11.7134C19.0089 11.6455 19.1196 11.5526 19.1863 11.5062C19.253 11.4615 19.3652 11.3968 19.4368 11.3637C19.5084 11.3288 19.6223 11.2857 19.689 11.2675C19.7557 11.2493 19.8696 11.2261 19.9412 11.2161C20.0323 11.2029 20.7318 11.1995 22.292 11.2029C24.4932 11.2095 24.5144 11.2095 24.6348 11.2443C24.7015 11.2625 24.8153 11.3023 24.8869 11.3305C24.9585 11.3587 25.0789 11.42 25.1554 11.4681C25.2318 11.5162 25.3506 11.6106 25.4222 11.6803C25.4921 11.7482 25.5816 11.846 25.619 11.8958C25.6565 11.9455 26.1624 12.8157 26.7416 13.8269C27.3208 14.8381 27.817 15.7149 27.843 15.7746C27.869 15.8343 27.9081 15.942 27.9292 16.015C27.9504 16.0879 27.9764 16.2305 27.9878 16.3299C28.0041 16.4775 28.0041 16.5454 27.9878 16.6863C27.9764 16.7825 27.9488 16.9217 27.9276 16.9963C27.9065 17.0725 27.8674 17.1803 27.8414 17.2367C27.817 17.2947 27.3208 18.1699 26.7416 19.1811C26.1624 20.1922 25.6565 21.0625 25.619 21.1122C25.5816 21.1619 25.4921 21.2597 25.4222 21.3277C25.3506 21.3973 25.2383 21.4885 25.1716 21.5299C25.1049 21.573 24.9911 21.6344 24.9195 21.6642C24.8479 21.6957 24.7275 21.7388 24.651 21.7603L24.5127 21.8001C21.0068 21.8034 19.9623 21.7985 19.9086 21.7902ZM9.56155 15.6089C9.4981 15.6022 9.39723 15.584 9.33379 15.5674C9.27034 15.5525 9.16459 15.516 9.09788 15.4879C9.03118 15.4597 8.93194 15.4116 8.87825 15.3784C8.82457 15.347 8.73997 15.2906 8.69116 15.2525C8.64235 15.2143 8.55125 15.1265 8.4878 15.0602C8.42435 14.9922 8.34788 14.8961 8.31535 14.8463C8.28281 14.7966 7.79637 13.9529 7.23509 12.9732C6.67381 11.9936 6.18411 11.1283 6.14832 11.0504C6.11253 10.9725 6.06535 10.8382 6.04257 10.752C6.00678 10.6144 6.0019 10.558 6.00027 10.321C5.99864 10.084 6.00352 10.0276 6.03769 9.89831C6.05884 9.81543 6.09951 9.69276 6.1288 9.6248C6.15645 9.55684 6.65428 8.67166 7.23346 7.6605C7.81264 6.64935 8.32836 5.76583 8.3788 5.69786C8.43086 5.6299 8.51546 5.53376 8.56914 5.48403C8.62283 5.4343 8.72207 5.35473 8.78877 5.30832C8.85548 5.26356 8.97261 5.19726 9.04908 5.16411C9.12554 5.13095 9.23129 5.09117 9.28498 5.07625C9.33867 5.06299 9.44441 5.03978 9.52088 5.02486C9.63964 5.00497 9.96177 5 11.7823 5C13.8273 5 13.9119 5.00166 14.0843 5.03315C14.1819 5.05139 14.3137 5.08288 14.3772 5.10443C14.4406 5.12598 14.5317 5.16411 14.5805 5.18731C14.6293 5.21052 14.7139 5.25859 14.7676 5.29506C14.8213 5.32987 14.9157 5.4028 14.9791 5.45751C15.0426 5.51221 15.1369 5.61664 15.1906 5.68958C15.2443 5.76085 15.7584 6.64106 16.3327 7.64393C16.9054 8.6468 17.3934 9.50379 17.4146 9.55021C17.4374 9.59496 17.4715 9.68116 17.4911 9.74083C17.5122 9.80051 17.5382 9.89831 17.5512 9.95964C17.5643 10.0226 17.5789 10.1453 17.5838 10.2332C17.5903 10.3426 17.5854 10.4503 17.5691 10.5614C17.5561 10.6525 17.5252 10.7868 17.5008 10.8597C17.4764 10.9327 17.4341 11.0404 17.4048 11.1001C17.3755 11.1598 16.8875 12.0168 16.3213 13.0064C15.7568 13.996 15.2541 14.8563 15.2069 14.9209C15.1597 14.9839 15.0751 15.0817 15.0182 15.1364C14.9612 15.1911 14.8669 15.269 14.8083 15.3105C14.7497 15.3503 14.6375 15.4149 14.5561 15.453C14.4748 15.4928 14.3511 15.5392 14.2796 15.5575C14.208 15.5757 14.0843 15.5989 14.003 15.6089C13.9102 15.6188 13.0822 15.6238 11.766 15.6238C10.6158 15.6221 9.625 15.6155 9.56155 15.6089Z" fill="white"/>
<path d="M51.892 10.83C53.1053 10.83 54.1887 11.142 55.142 11.766C56.1127 12.3727 56.8753 13.2133 57.43 14.288C58.002 15.3627 58.288 16.6107 58.288 18.032C58.288 19.4533 58.002 20.71 57.43 21.802C56.8753 22.8767 56.1213 23.726 55.168 24.35C54.232 24.9567 53.1747 25.26 51.996 25.26C51.3027 25.26 50.6527 25.1473 50.046 24.922C49.4393 24.6967 48.902 24.4107 48.434 24.064C47.9833 23.7173 47.628 23.3707 47.368 23.024C47.1253 22.66 47.004 22.3567 47.004 22.114L47.81 21.776V23.674C47.81 24.1247 47.6627 24.506 47.368 24.818C47.0733 25.1127 46.7007 25.26 46.25 25.26C45.7993 25.26 45.4267 25.1127 45.132 24.818C44.8373 24.5233 44.69 24.142 44.69 23.674V7.346C44.69 6.89533 44.8373 6.52267 45.132 6.228C45.4267 5.916 45.7993 5.76 46.25 5.76C46.7007 5.76 47.0733 5.916 47.368 6.228C47.6627 6.52267 47.81 6.89533 47.81 7.346V13.95L47.368 13.716C47.368 13.4907 47.4893 13.222 47.732 12.91C47.9747 12.5807 48.304 12.26 48.72 11.948C49.136 11.6187 49.6127 11.35 50.15 11.142C50.7047 10.934 51.2853 10.83 51.892 10.83ZM51.502 13.69C50.7393 13.69 50.072 13.8807 49.5 14.262C48.928 14.6433 48.4773 15.1633 48.148 15.822C47.836 16.4633 47.68 17.2 47.68 18.032C47.68 18.8467 47.836 19.592 48.148 20.268C48.4773 20.9267 48.928 21.4467 49.5 21.828C50.072 22.2093 50.7393 22.4 51.502 22.4C52.2647 22.4 52.9233 22.2093 53.478 21.828C54.05 21.4467 54.492 20.9267 54.804 20.268C55.1333 19.592 55.298 18.8467 55.298 18.032C55.298 17.2 55.1333 16.4633 54.804 15.822C54.492 15.1633 54.05 14.6433 53.478 14.262C52.9233 13.8807 52.2647 13.69 51.502 13.69ZM67.3082 25.26C65.8348 25.26 64.5522 24.9567 63.4602 24.35C62.3855 23.726 61.5535 22.8853 60.9642 21.828C60.3922 20.7707 60.1062 19.5747 60.1062 18.24C60.1062 16.68 60.4182 15.354 61.0422 14.262C61.6835 13.1527 62.5155 12.3033 63.5382 11.714C64.5608 11.1247 65.6442 10.83 66.7882 10.83C67.6722 10.83 68.5042 11.012 69.2842 11.376C70.0815 11.74 70.7835 12.2427 71.3902 12.884C71.9968 13.508 72.4735 14.236 72.8202 15.068C73.1842 15.9 73.3662 16.784 73.3662 17.72C73.3488 18.136 73.1842 18.474 72.8722 18.734C72.5602 18.994 72.1962 19.124 71.7802 19.124H61.8482L61.0682 16.524H70.6102L70.0382 17.044V16.342C70.0035 15.8393 69.8215 15.3887 69.4922 14.99C69.1802 14.5913 68.7815 14.2793 68.2962 14.054C67.8282 13.8113 67.3255 13.69 66.7882 13.69C66.2682 13.69 65.7828 13.7593 65.3322 13.898C64.8815 14.0367 64.4915 14.2707 64.1622 14.6C63.8328 14.9293 63.5728 15.3713 63.3822 15.926C63.1915 16.4807 63.0962 17.1827 63.0962 18.032C63.0962 18.968 63.2868 19.7653 63.6682 20.424C64.0668 21.0653 64.5695 21.5593 65.1762 21.906C65.8002 22.2353 66.4588 22.4 67.1522 22.4C67.7935 22.4 68.3048 22.348 68.6862 22.244C69.0675 22.14 69.3708 22.0187 69.5962 21.88C69.8388 21.724 70.0555 21.594 70.2462 21.49C70.5582 21.334 70.8528 21.256 71.1302 21.256C71.5115 21.256 71.8235 21.386 72.0662 21.646C72.3262 21.906 72.4562 22.2093 72.4562 22.556C72.4562 23.024 72.2135 23.4487 71.7282 23.83C71.2775 24.2113 70.6448 24.5493 69.8302 24.844C69.0155 25.1213 68.1748 25.26 67.3082 25.26ZM82.3841 25.26C80.9108 25.26 79.6281 24.9567 78.5361 24.35C77.4614 23.726 76.6294 22.8853 76.0401 21.828C75.4681 20.7707 75.1821 19.5747 75.1821 18.24C75.1821 16.68 75.4941 15.354 76.1181 14.262C76.7594 13.1527 77.5914 12.3033 78.6141 11.714C79.6368 11.1247 80.7201 10.83 81.8641 10.83C82.7481 10.83 83.5801 11.012 84.3601 11.376C85.1574 11.74 85.8594 12.2427 86.4661 12.884C87.0728 13.508 87.5494 14.236 87.8961 15.068C88.2601 15.9 88.4421 16.784 88.4421 17.72C88.4248 18.136 88.2601 18.474 87.9481 18.734C87.6361 18.994 87.2721 19.124 86.8561 19.124H76.9241L76.1441 16.524H85.6861L85.1141 17.044V16.342C85.0794 15.8393 84.8974 15.3887 84.5681 14.99C84.2561 14.5913 83.8574 14.2793 83.3721 14.054C82.9041 13.8113 82.4014 13.69 81.8641 13.69C81.3441 13.69 80.8588 13.7593 80.4081 13.898C79.9574 14.0367 79.5674 14.2707 79.2381 14.6C78.9088 14.9293 78.6488 15.3713 78.4581 15.926C78.2674 16.4807 78.1721 17.1827 78.1721 18.032C78.1721 18.968 78.3628 19.7653 78.7441 20.424C79.1428 21.0653 79.6454 21.5593 80.2521 21.906C80.8761 22.2353 81.5348 22.4 82.2281 22.4C82.8694 22.4 83.3808 22.348 83.7621 22.244C84.1434 22.14 84.4468 22.0187 84.6721 21.88C84.9148 21.724 85.1314 21.594 85.3221 21.49C85.6341 21.334 85.9288 21.256 86.2061 21.256C86.5874 21.256 86.8994 21.386 87.1421 21.646C87.4021 21.906 87.5321 22.2093 87.5321 22.556C87.5321 23.024 87.2894 23.4487 86.8041 23.83C86.3534 24.2113 85.7208 24.5493 84.9061 24.844C84.0914 25.1213 83.2508 25.26 82.3841 25.26ZM90.102 22.842C89.9287 22.5993 89.8507 22.2873 89.868 21.906C89.8854 21.5247 90.1107 21.1953 90.544 20.918C90.8214 20.7447 91.116 20.6753 91.428 20.71C91.74 20.7273 92.0434 20.8833 92.338 21.178C92.8407 21.6807 93.3694 22.0707 93.924 22.348C94.4787 22.6253 95.172 22.764 96.004 22.764C96.264 22.7467 96.55 22.712 96.862 22.66C97.174 22.5907 97.4427 22.452 97.668 22.244C97.9107 22.0187 98.032 21.6807 98.032 21.23C98.032 20.8487 97.902 20.5453 97.642 20.32C97.382 20.0947 97.0354 19.904 96.602 19.748C96.186 19.592 95.718 19.4447 95.198 19.306C94.6607 19.15 94.106 18.9767 93.534 18.786C92.9794 18.5953 92.468 18.3527 92 18.058C91.532 17.746 91.1507 17.3387 90.856 16.836C90.5614 16.3333 90.414 15.7007 90.414 14.938C90.414 14.0713 90.6567 13.3347 91.142 12.728C91.6274 12.1213 92.2514 11.6533 93.014 11.324C93.794 10.9947 94.6087 10.83 95.458 10.83C95.9954 10.83 96.5587 10.8993 97.148 11.038C97.7374 11.1593 98.3007 11.3673 98.838 11.662C99.3754 11.9393 99.826 12.312 100.19 12.78C100.381 13.04 100.493 13.352 100.528 13.716C100.563 14.08 100.398 14.4093 100.034 14.704C99.774 14.912 99.4707 15.0073 99.124 14.99C98.7774 14.9553 98.4914 14.834 98.266 14.626C97.9714 14.2447 97.5727 13.9413 97.07 13.716C96.5847 13.4907 96.0214 13.378 95.38 13.378C95.12 13.378 94.834 13.4127 94.522 13.482C94.2274 13.534 93.9674 13.664 93.742 13.872C93.5167 14.0627 93.404 14.3747 93.404 14.808C93.404 15.2067 93.534 15.5273 93.794 15.77C94.054 15.9953 94.4007 16.186 94.834 16.342C95.2847 16.4807 95.7614 16.6193 96.264 16.758C96.784 16.8967 97.3127 17.0613 97.85 17.252C98.3874 17.4427 98.8814 17.694 99.332 18.006C99.7827 18.318 100.147 18.7253 100.424 19.228C100.701 19.7133 100.84 20.3373 100.84 21.1C100.84 21.984 100.58 22.738 100.06 23.362C99.54 23.986 98.89 24.4627 98.11 24.792C97.33 25.104 96.5327 25.26 95.718 25.26C94.6954 25.26 93.6727 25.0867 92.65 24.74C91.6274 24.376 90.778 23.7433 90.102 22.842Z" fill="white"/>
</g>
<defs>
<clipPath id="clip0_14_7">
<rect width="120" height="32" fill="white"/>
</clipPath>
</defs>
</svg>
